<svg xmlns="http://www.w3.org/2000/svg" xmlns:xlink="http://www.w3.org/1999/xlink" viewBox="112 118 276 264" width="512" height="512" class="bl_fav" role="img" aria-label="EduTech logo"><style>
      .bl_fav .ln, .bl_fav .rl { fill: none; stroke-linejoin: round; stroke-dasharray: 1 1; stroke-dashoffset: 0; stroke-opacity: 0; }

      @keyframes ln_d1_fav {
        0% { stroke-dashoffset: 1; stroke-opacity: 1; animation-timing-function: cubic-bezier(.65,0,.35,1); }
        16.3333% { stroke-dashoffset: 1; stroke-opacity: 1; animation-timing-function: cubic-bezier(.65,0,.35,1); }
        21.6667% { stroke-dashoffset: 0; stroke-opacity: 1; animation-timing-function: ease; }
        23.6667% { stroke-dashoffset: 0; stroke-opacity: 1; }
        25.6667% { stroke-dashoffset: 0; stroke-opacity: 0; }
        68.3333% { stroke-dashoffset: 0; stroke-opacity: 0; animation-timing-function: ease; }
        70% { stroke-dashoffset: 0; stroke-opacity: 1; animation-timing-function: cubic-bezier(.65,0,.35,1); }
        75.3333% { stroke-dashoffset: 1; stroke-opacity: 1; }
        100% { stroke-dashoffset: 1; stroke-opacity: 1; }
      }
      @keyframes bd_d1_fav {
        0% { opacity: 0; animation-timing-function: ease; }
        20.6667% { opacity: 0; animation-timing-function: ease; }
        23.3333% { opacity: 1; }
        68.3333% { opacity: 1; animation-timing-function: ease; }
        71% { opacity: 0; }
        100% { opacity: 0; }
      }
      .bl_fav .d1 .ln { animation: ln_d1_fav 12s linear -6s infinite; }
      .bl_fav .d1 .body { animation: bd_d1_fav 12s linear -6s infinite; }
      @keyframes rl_d1_fav {
        0% { stroke-dashoffset: 1; stroke-opacity: 1; animation-timing-function: cubic-bezier(.65,0,.35,1); }
        21% { stroke-dashoffset: 1; stroke-opacity: 1; animation-timing-function: cubic-bezier(.65,0,.35,1); }
        23.3333% { stroke-dashoffset: 0; stroke-opacity: 1; animation-timing-function: ease; }
        23.6667% { stroke-dashoffset: 0; stroke-opacity: 1; }
        25.6667% { stroke-dashoffset: 0; stroke-opacity: 0; }
        68.3333% { stroke-dashoffset: 0; stroke-opacity: 0; animation-timing-function: ease; }
        69.3333% { stroke-dashoffset: 0; stroke-opacity: 1; animation-timing-function: cubic-bezier(.65,0,.35,1); }
        70.6667% { stroke-dashoffset: 1; stroke-opacity: 1; }
        100% { stroke-dashoffset: 1; stroke-opacity: 1; }
      }
      .bl_fav .d1 .rl { animation: rl_d1_fav 12s linear -6s infinite; }

      @keyframes ln_d2_fav {
        0% { stroke-dashoffset: 1; stroke-opacity: 1; animation-timing-function: cubic-bezier(.65,0,.35,1); }
        21% { stroke-dashoffset: 1; stroke-opacity: 1; animation-timing-function: cubic-bezier(.65,0,.35,1); }
        26.3333% { stroke-dashoffset: 0; stroke-opacity: 1; animation-timing-function: ease; }
        28.3333% { stroke-dashoffset: 0; stroke-opacity: 1; }
        30.3333% { stroke-dashoffset: 0; stroke-opacity: 0; }
        63.6667% { stroke-dashoffset: 0; stroke-opacity: 0; animation-timing-function: ease; }
        65.3333% { stroke-dashoffset: 0; stroke-opacity: 1; animation-timing-function: cubic-bezier(.65,0,.35,1); }
        70.6667% { stroke-dashoffset: 1; stroke-opacity: 1; }
        100% { stroke-dashoffset: 1; stroke-opacity: 1; }
      }
      @keyframes bd_d2_fav {
        0% { opacity: 0; animation-timing-function: ease; }
        25.3333% { opacity: 0; animation-timing-function: ease; }
        28% { opacity: 1; }
        63.6667% { opacity: 1; animation-timing-function: ease; }
        66.3333% { opacity: 0; }
        100% { opacity: 0; }
      }
      .bl_fav .d2 .ln { animation: ln_d2_fav 12s linear -6s infinite; }
      .bl_fav .d2 .body { animation: bd_d2_fav 12s linear -6s infinite; }
      @keyframes rl_d2_fav {
        0% { stroke-dashoffset: 1; stroke-opacity: 1; animation-timing-function: cubic-bezier(.65,0,.35,1); }
        25.6667% { stroke-dashoffset: 1; stroke-opacity: 1; animation-timing-function: cubic-bezier(.65,0,.35,1); }
        28% { stroke-dashoffset: 0; stroke-opacity: 1; animation-timing-function: ease; }
        28.3333% { stroke-dashoffset: 0; stroke-opacity: 1; }
        30.3333% { stroke-dashoffset: 0; stroke-opacity: 0; }
        63.6667% { stroke-dashoffset: 0; stroke-opacity: 0; animation-timing-function: ease; }
        64.6667% { stroke-dashoffset: 0; stroke-opacity: 1; animation-timing-function: cubic-bezier(.65,0,.35,1); }
        66% { stroke-dashoffset: 1; stroke-opacity: 1; }
        100% { stroke-dashoffset: 1; stroke-opacity: 1; }
      }
      .bl_fav .d2 .rl { animation: rl_d2_fav 12s linear -6s infinite; }

      @keyframes ln_top_fav {
        0% { stroke-dashoffset: 1; stroke-opacity: 1; animation-timing-function: cubic-bezier(.65,0,.35,1); }
        0.6667% { stroke-dashoffset: 1; stroke-opacity: 1; animation-timing-function: cubic-bezier(.65,0,.35,1); }
        6.6667% { stroke-dashoffset: 0; stroke-opacity: 1; animation-timing-function: ease; }
        9% { stroke-dashoffset: 0; stroke-opacity: 1; }
        11% { stroke-dashoffset: 0; stroke-opacity: 0; }
        83% { stroke-dashoffset: 0; stroke-opacity: 0; animation-timing-function: ease; }
        85% { stroke-dashoffset: 0; stroke-opacity: 1; animation-timing-function: cubic-bezier(.65,0,.35,1); }
        91% { stroke-dashoffset: 1; stroke-opacity: 1; }
        100% { stroke-dashoffset: 1; stroke-opacity: 1; }
      }
      @keyframes bd_top_fav {
        0% { opacity: 0; animation-timing-function: ease; }
        6% { opacity: 0; animation-timing-function: ease; }
        8.6667% { opacity: 1; }
        83% { opacity: 1; animation-timing-function: ease; }
        85.6667% { opacity: 0; }
        100% { opacity: 0; }
      }
      .bl_fav .top .ln { animation: ln_top_fav 12s linear -6s infinite; }
      .bl_fav .top .body { animation: bd_top_fav 12s linear -6s infinite; }

      @keyframes ln_chev_fav {
        0% { stroke-dashoffset: 1; stroke-opacity: 1; animation-timing-function: cubic-bezier(.65,0,.35,1); }
        7% { stroke-dashoffset: 1; stroke-opacity: 1; animation-timing-function: cubic-bezier(.65,0,.35,1); }
        12% { stroke-dashoffset: 0; stroke-opacity: 1; animation-timing-function: ease; }
        14% { stroke-dashoffset: 0; stroke-opacity: 1; }
        16% { stroke-dashoffset: 0; stroke-opacity: 0; }
        78% { stroke-dashoffset: 0; stroke-opacity: 0; animation-timing-function: ease; }
        79.6667% { stroke-dashoffset: 0; stroke-opacity: 1; animation-timing-function: cubic-bezier(.65,0,.35,1); }
        84.6667% { stroke-dashoffset: 1; stroke-opacity: 1; }
        100% { stroke-dashoffset: 1; stroke-opacity: 1; }
      }
      @keyframes bd_chev_fav {
        0% { opacity: 0; animation-timing-function: ease; }
        11% { opacity: 0; animation-timing-function: ease; }
        13.6667% { opacity: 1; }
        78% { opacity: 1; animation-timing-function: ease; }
        80.6667% { opacity: 0; }
        100% { opacity: 0; }
      }
      .bl_fav .chev .ln { animation: ln_chev_fav 12s linear -6s infinite; }
      .bl_fav .chev .body { animation: bd_chev_fav 12s linear -6s infinite; }

      @keyframes ln_bub_fav {
        0% { stroke-dashoffset: 1; stroke-opacity: 1; animation-timing-function: cubic-bezier(.65,0,.35,1); }
        11.6667% { stroke-dashoffset: 1; stroke-opacity: 1; animation-timing-function: cubic-bezier(.65,0,.35,1); }
        16% { stroke-dashoffset: 0; stroke-opacity: 1; animation-timing-function: ease; }
        18% { stroke-dashoffset: 0; stroke-opacity: 1; }
        20% { stroke-dashoffset: 0; stroke-opacity: 0; }
        74% { stroke-dashoffset: 0; stroke-opacity: 0; animation-timing-function: ease; }
        75.6667% { stroke-dashoffset: 0; stroke-opacity: 1; animation-timing-function: cubic-bezier(.65,0,.35,1); }
        80% { stroke-dashoffset: 1; stroke-opacity: 1; }
        100% { stroke-dashoffset: 1; stroke-opacity: 1; }
      }
      @keyframes bd_bub_fav {
        0% { opacity: 0; animation-timing-function: ease; }
        15% { opacity: 0; animation-timing-function: ease; }
        17.6667% { opacity: 1; }
        74% { opacity: 1; animation-timing-function: ease; }
        76.6667% { opacity: 0; }
        100% { opacity: 0; }
      }
      .bl_fav .bub .ln { animation: ln_bub_fav 12s linear -6s infinite; }
      .bl_fav .bub .body { animation: bd_bub_fav 12s linear -6s infinite; }
      @keyframes rl_bub_fav {
        0% { stroke-dashoffset: 1; stroke-opacity: 1; animation-timing-function: cubic-bezier(.65,0,.35,1); }
        15.3333% { stroke-dashoffset: 1; stroke-opacity: 1; animation-timing-function: cubic-bezier(.65,0,.35,1); }
        17.6667% { stroke-dashoffset: 0; stroke-opacity: 1; animation-timing-function: ease; }
        18% { stroke-dashoffset: 0; stroke-opacity: 1; }
        20% { stroke-dashoffset: 0; stroke-opacity: 0; }
        74% { stroke-dashoffset: 0; stroke-opacity: 0; animation-timing-function: ease; }
        75% { stroke-dashoffset: 0; stroke-opacity: 1; animation-timing-function: cubic-bezier(.65,0,.35,1); }
        76.3333% { stroke-dashoffset: 1; stroke-opacity: 1; }
        100% { stroke-dashoffset: 1; stroke-opacity: 1; }
      }
      .bl_fav .bub .rl { animation: rl_bub_fav 12s linear -6s infinite; }

      @keyframes jump_fav {
        0% { transform: translateY(0) scale(1, 1); animation-timing-function: ease-in-out; }
        29.3333% { transform: translateY(0) scale(1, 1); animation-timing-function: ease-in-out; }
        30.2% { transform: translateY(1px) scale(1.18, .8); animation-timing-function: ease-in-out; }
        31.2667% { transform: translateY(-7px) scale(.86, 1.25); animation-timing-function: ease-in-out; }
        32.3667% { transform: translateY(0) scale(1.1, .9); animation-timing-function: ease-in-out; }
        33.1667% { transform: translateY(-1px) scale(.97, 1.04); animation-timing-function: ease-in-out; }
        33.6667% { transform: translateY(0) scale(1, 1); animation-timing-function: ease-in-out; }
        100% { transform: translateY(0) scale(1, 1); }
      }
      .bl_fav .life { transform-box: view-box; animation: jump_fav 12s linear -6s infinite; }

      @media (prefers-reduced-motion: reduce) {
        .bl_fav * { animation: none !important; }
        .bl_fav .ln, .bl_fav .rl { stroke-opacity: 0; }
        .bl_fav .body { opacity: 1; }
      }
    </style><defs><path id="f_d1_fav" d="M 302.12 243.69 L 301.81 263.60 C 301.54 280.84, 301.24 284.04, 299.56 287.50 L 290.53 314.00 C 290.79 314.00, 291.00 316.94, 291.00 320.53 C 291.00 326.76, 290.84 327.20, 287.45 330.18 C 282.76 334.30, 280.73 338.43, 280.84 343.67 C 280.95 349.39, 282.99 353.03, 288.04 356.53 C 299.83 364.70, 314.97 355.68, 313.77 341.21 C 313.33 335.99, 312.96 335.28, 308.26 330.97 L 303.22 326.33 303.71 314.49 C 304.17 303.22, 304.34 302.46, 307.13 298.99 C 313.53 291.02, 314.36 286.93, 314.96 260.57 L 315.50 236.64 Z M 302.05 340.09 C 304.83 345.30, 299.24 350.70, 294.37 347.50 C 291.77 345.80, 291.13 341.27, 293.20 339.20 C 295.24 337.16, 300.78 337.72, 302.05 340.09 Z" fill-rule="evenodd"/><path id="s_d1_fav" d="M 302.12 243.69 L 301.81 263.60 C 301.54 280.84, 301.24 284.04, 299.56 287.50 L 290.53 314.00 C 290.79 314.00, 291.00 316.94, 291.00 320.53 C 291.00 326.76, 290.84 327.20, 287.45 330.18 C 282.76 334.30, 280.73 338.43, 280.84 343.67 C 280.95 349.39, 282.99 353.03, 288.04 356.53 C 299.83 364.70, 314.97 355.68, 313.77 341.21 C 313.33 335.99, 312.96 335.28, 308.26 330.97 L 303.22 326.33 303.71 314.49 C 304.17 303.22, 304.34 302.46, 307.13 298.99 C 313.53 291.02, 314.36 286.93, 314.96 260.57 L 315.50 236.64 Z" pathLength="1"/><path id="r_d1_fav" d="M 302.05 340.09 C 304.83 345.30, 299.24 350.70, 294.37 347.50 C 291.77 345.80, 291.13 341.27, 293.20 339.20 C 295.24 337.16, 300.78 337.72, 302.05 340.09 Z" pathLength="1"/><path id="f_d2_fav" d="M 327.75 230.04 C 328.73 230.01, 329.00 237.53, 329.00 264.43 L 329.00 298.86 326.07 300.95 C 319.21 305.83, 317.13 314.41, 320.97 321.94 C 326.22 332.24, 343.19 333.30, 349.04 323.70 C 353.73 316.02, 352.79 308.39, 346.41 302.27 L 342.00 298.03 342.00 259.70 L 342.00 221.36 Z M 339.48 310.63 C 341.82 312.97, 341.00 317.15, 337.87 318.91 C 332.58 321.86, 327.29 314.85, 331.57 310.57 C 333.61 308.54, 337.42 308.56, 339.48 310.63 Z" fill-rule="evenodd"/><path id="s_d2_fav" d="M 327.75 230.04 C 328.73 230.01, 329.00 237.53, 329.00 264.43 L 329.00 298.86 326.07 300.95 C 319.21 305.83, 317.13 314.41, 320.97 321.94 C 326.22 332.24, 343.19 333.30, 349.04 323.70 C 353.73 316.02, 352.79 308.39, 346.41 302.27 L 342.00 298.03 342.00 259.70 L 342.00 221.36 Z" pathLength="1"/><path id="r_d2_fav" d="M 339.48 310.63 C 341.82 312.97, 341.00 317.15, 337.87 318.91 C 332.58 321.86, 327.29 314.85, 331.57 310.57 C 333.61 308.54, 337.42 308.56, 339.48 310.63 Z" pathLength="1"/><path id="f_top_fav" d="M 212.5 146.64 C 122.94 196.65, 121.73 197.36, 122.20 199.75 C 122.36 200.60, 130.38 205.87, 140 211.47 C 149.63 217.07, 167.63 227.64, 180 234.97 C 192.38 242.29, 204.08 249.16, 206 250.25 C 207.93 251.33, 209.95 252.57, 210.5 253 C 211.05 253.43, 213.3 254.79, 215.5 256.01 C 217.7 257.24, 224.51 261.14, 230.62 264.68 C 248.44 274.99, 250.60 274.82, 273.20 261.23 C 280.28 256.98, 288.41 252.12, 291.28 250.44 C 294.15 248.76, 297.76 246.56, 299.31 245.54 L 302.12 243.69 L 315.5 236.64 L 321 233.36 L 342 221.36 L 350.65 216.43 C 355.41 213.72, 361.59 210.19, 364.40 208.59 C 374.68 202.73, 377.13 200.90, 376.81 199.31 C 376.48 197.63, 370.89 194.47, 265.61 136.33 C 256.32 131.20, 248.45 127.02, 248.11 127.05 C 247.78 127.08, 231.75 135.90, 212.5 146.64 Z"/><path id="s_top_fav" d="M 212.5 146.64 C 122.94 196.65, 121.73 197.36, 122.20 199.75 C 122.36 200.60, 130.38 205.87, 140 211.47 C 149.63 217.07, 167.63 227.64, 180 234.97 C 192.38 242.29, 204.08 249.16, 206 250.25 C 207.93 251.33, 209.95 252.57, 210.5 253 C 211.05 253.43, 213.3 254.79, 215.5 256.01 C 217.7 257.24, 224.51 261.14, 230.62 264.68 C 248.44 274.99, 250.60 274.82, 273.20 261.23 C 280.28 256.98, 288.41 252.12, 291.28 250.44 C 294.15 248.76, 297.76 246.56, 299.31 245.54 L 302.12 243.69 L 315.5 236.64 L 321 233.36 L 342 221.36 L 350.65 216.43 C 355.41 213.72, 361.59 210.19, 364.40 208.59 C 374.68 202.73, 377.13 200.90, 376.81 199.31 C 376.48 197.63, 370.89 194.47, 265.61 136.33 C 256.32 131.20, 248.45 127.02, 248.11 127.05 C 247.78 127.08, 231.75 135.90, 212.5 146.64 Z" pathLength="1"/><path id="f_chev_fav" d="M 161.23 261.16 L 161.50 287.33 168.00 288.64 C 187.95 292.66, 217.84 308.43, 234.21 323.57 C 236.24 325.46, 238.43 327.00, 239.07 327.00 C 239.70 327.00, 242.69 324.74, 245.72 321.97 C 251.86 316.37, 262.67 308.10, 271.00 302.65 C 290.29 290.04, 292.52 287.24, 293.60 274.22 C 294.34 265.39, 293.68 261.00, 291.61 261.00 C 290.86 261.00, 286.04 263.54, 280.88 266.65 C 251.49 284.35, 248.20 284.76, 228.50 273.11 C 223.00 269.85, 207.48 260.77, 194.00 252.93 C 180.53 245.08, 168.31 237.84, 166.85 236.83 C 160.87 232.71, 160.94 232.41, 161.23 261.16 Z"/><path id="s_chev_fav" d="M 161.23 261.16 L 161.50 287.33 168.00 288.64 C 187.95 292.66, 217.84 308.43, 234.21 323.57 C 236.24 325.46, 238.43 327.00, 239.07 327.00 C 239.70 327.00, 242.69 324.74, 245.72 321.97 C 251.86 316.37, 262.67 308.10, 271.00 302.65 C 290.29 290.04, 292.52 287.24, 293.60 274.22 C 294.34 265.39, 293.68 261.00, 291.61 261.00 C 290.86 261.00, 286.04 263.54, 280.88 266.65 C 251.49 284.35, 248.20 284.76, 228.50 273.11 C 223.00 269.85, 207.48 260.77, 194.00 252.93 C 180.53 245.08, 168.31 237.84, 166.85 236.83 C 160.87 232.71, 160.94 232.41, 161.23 261.16 Z" pathLength="1"/><path id="f_bub_fav" d="M 299.56 287.50 C 297.19 292.40, 286.39 303.11, 278.41 308.47 C 268.77 314.95, 263.83 319.02, 257.82 325.44 C 249.99 333.80, 249.11 334.66, 244.04 338.94 C 239.67 342.63, 239.58 342.83, 239.20 349.60 C 238.76 357.81, 240.95 362.01, 247.47 365.37 C 262.26 373.01, 277.16 358.28, 269.87 343.24 C 268.70 340.82, 267.13 338.60, 266.37 338.31 C 263.84 337.34, 264.96 334.66, 269.75 330.24 C 274.54 325.81, 289.66 314.00, 290.53 314.00 Z M 258.36 346.51 C 263.61 351.76, 258.50 358.48, 251.93 354.96 C 249.20 353.50, 249.37 348.55, 252.22 346.56 C 255.01 344.61, 256.45 344.59, 258.36 346.51 Z" fill-rule="evenodd"/><path id="s_bub_fav" d="M 299.56 287.50 C 297.19 292.40, 286.39 303.11, 278.41 308.47 C 268.77 314.95, 263.83 319.02, 257.82 325.44 C 249.99 333.80, 249.11 334.66, 244.04 338.94 C 239.67 342.63, 239.58 342.83, 239.20 349.60 C 238.76 357.81, 240.95 362.01, 247.47 365.37 C 262.26 373.01, 277.16 358.28, 269.87 343.24 C 268.70 340.82, 267.13 338.60, 266.37 338.31 C 263.84 337.34, 264.96 334.66, 269.75 330.24 C 274.54 325.81, 289.66 314.00, 290.53 314.00 Z" pathLength="1"/><path id="r_bub_fav" d="M 258.36 346.51 C 263.61 351.76, 258.50 358.48, 251.93 354.96 C 249.20 353.50, 249.37 348.55, 252.22 346.56 C 255.01 344.61, 256.45 344.59, 258.36 346.51 Z" pathLength="1"/></defs><g class="d1"><use class="body" href="#f_d1_fav" xlink:href="#f_d1_fav" fill="#6366f1"/><use class="ln" href="#s_d1_fav" xlink:href="#s_d1_fav" stroke="#6366f1" stroke-width="6"/><g style="transform-origin: 297.6px 343.6px"><use class="rl" href="#r_d1_fav" xlink:href="#r_d1_fav" stroke="#6366f1" stroke-width="3"/></g></g><g class="d2"><use class="body" href="#f_d2_fav" xlink:href="#f_d2_fav" fill="#6366f1"/><use class="ln" href="#s_d2_fav" xlink:href="#s_d2_fav" stroke="#6366f1" stroke-width="6"/><g style="transform-origin: 334.4px 314.5px"><use class="rl" href="#r_d2_fav" xlink:href="#r_d2_fav" stroke="#6366f1" stroke-width="3"/></g></g><g class="top"><use class="body" href="#f_top_fav" xlink:href="#f_top_fav" fill="#6366f1"/><use class="ln" href="#s_top_fav" xlink:href="#s_top_fav" stroke="#6366f1" stroke-width="6"/></g><g class="chev"><use class="body" href="#f_chev_fav" xlink:href="#f_chev_fav" fill="#30329b"/><use class="ln" href="#s_chev_fav" xlink:href="#s_chev_fav" stroke="#30329b" stroke-width="6"/></g><g class="bub"><use class="body" href="#f_bub_fav" xlink:href="#f_bub_fav" fill="#30329b"/><use class="ln" href="#s_bub_fav" xlink:href="#s_bub_fav" stroke="#30329b" stroke-width="6"/><g class="life" style="transform-origin: 255.3px 350.6px"><use class="rl" href="#r_bub_fav" xlink:href="#r_bub_fav" stroke="#30329b" stroke-width="3"/></g></g></svg>